<svg xmlns="http://www.w3.org/2000/svg" style="display: none;">
        <symbol viewBox="0 0 22 12" id="icon-vk">
          <path d="M17.6 12c-.3 0-.9-.1-1.5-.5-.5-.3-.9-.7-1.3-1.2-.3-.3-.9-.9-1.1-.9-.2.1-.4.7-.3 1.2 0 .1 0 .6-.3.9-.3.3-.8.4-.9.4h-1.4c-.7 0-3.2-.2-5.4-2.3C2.5 7.1.2 2.2.1 2 0 1.6-.1 1.2.2.9s.8-.4 1-.4h3.1l.7.3c.3.2.4.5.5.6.7 1.5 1.5 2.8 2.6 4 .1-.4.2-1.4.1-2.3l-.2-1a.8.8 0 00-.5-.2l-.6-.5c0-.5.5-.9.9-1.1.5-.2 1.3-.3 2.3-.3h.5l1.6.1c1.2.3 1.2 1.3 1.1 2.5v1.6l.1 1c.2-.1.6-.5 1.5-1.9.6-.9 1-1.9 1.1-2.1.1-.3.4-.7 1.2-.7h3.4c.7 0 1.2.2 1.3.7.2.5.1 1.3-1.7 3.5l-.7.9c-.5.4-.9 1-.9 1.1l.9.9c1.1.9 1.9 1.7 2.2 2.3.4.6.3 1 .2 1.3-.3.7-1.2.7-1.4.8h-2.8-.1zm-3.9-3.7c.7 0 1.2.6 1.8 1.2.4.4.7.8 1.1 1 .5.3 1 .3 1 .3h2.9l.4-.1-.1-.1c-.3-.5-1-1.3-2-2.1-.9-.7-1.3-1.1-1.4-1.7 0-.6.4-1.1 1.2-2.1l.7-.8a9 9 0 001.5-2.3h-3.9c0 .4-.5 1.5-1.1 2.4-1.4 2.1-2 2.4-2.5 2.4l-.4-.1c-.7-.4-.7-1.4-.7-2.1V2.6c.1-1.3 0-1.3-.3-1.4l-1.4-.1H10l-1.4.1.2.2c.4.5.4 1.5.4 1.7.1 1.3 0 2.9-.7 3.3l-.4.1c-.6 0-1.3-.7-2.5-2.5L4.5 1.8l-.1-.1-.2-.1h-3c.4.9 2.5 5 4.8 7.2 2 1.9 4.3 2 4.7 2h1.4l.2-.1v-.1c0-.2 0-2 1.2-2.3h.2z"/>
        </symbol>
        <symbol viewBox="0 0 10 19" id="icon-fb">
          <path d="M7.1 19H2v-8.8H0V5.8h1.9c-.1-2 .2-3.4 1.1-4.4C3.8.5 5 .1 6.5 0H10v4.2H7.2L7 5.8h3v4.4H7.1V19zm-4-1h2.8V9.1h2.9V6.8H5.9v-.5c0-1.4 0-2.6.7-3.1l.1-.1h2.1V1H6.5c-1.2.1-2 .4-2.6 1-.8.8-1 2.3-.8 4.2l.1.6H1.1v2.3h2V18z"/>
        </symbol>
        <symbol viewBox="0 0 16.1 16" id="icon-insta">
          <style>.st0 {
              fill: #231f20;
            }
</style><path d="M11.8 1C13.6 1 15 2.4 15 4.2v7.7c0 1.7-1.4 3.1-3.1 3.1H4.2A3.2 3.2 0 011 11.8V4.2C1 2.4 2.4 1 4.2 1h7.6m0-1H4.2A4.2 4.2 0 000 4.2v7.7C0 14.1 1.9 16 4.2 16h7.7c2.3 0 4.2-1.9 4.2-4.2V4.2C16 1.9 14.1 0 11.8 0z" class="st0"/><path d="M8 4.9c1.7 0 3.1 1.4 3.1 3.1S9.7 11.1 8 11.1 4.9 9.7 4.9 8 6.3 4.9 8 4.9m0-1C5.7 3.9 3.9 5.7 3.9 8s1.8 4.1 4.1 4.1 4.1-1.8 4.1-4.1S10.3 3.9 8 3.9z" class="st0"/><circle cx="12.3" cy="3.7" r=".9" class="st0"/>

        </symbol>
      </svg>
